HIERARCHY
ROOT Hips
{
	OFFSET 0.000000 0.000000 0.000000
	CHANNELS 6 Xposition Yposition Zposition Xrotation Yrotation Zrotation
	JOINT LeftUpLeg_virtual
	{
		OFFSET 0.000000 0.000000 0.000000
		CHANNELS 3 Xrotation Yrotation Zrotation
		JOINT LeftUpLeg
		{
			OFFSET 15.427100 -6.655098 0.678600
			CHANNELS 3 Xrotation Yrotation Zrotation
			JOINT LeftLeg
			{
				OFFSET 4.081073 -39.591068 13.024000
				CHANNELS 3 Xrotation Yrotation Zrotation
				JOINT LeftFoot
				{
					OFFSET -4.081074 -37.707932 -15.979700
					CHANNELS 3 Xrotation Yrotation Zrotation
					JOINT LeftToeBase
					{
						OFFSET 5.346399 -15.068900 20.645000
						CHANNELS 3 Xrotation Yrotation Zrotation
						JOINT LeftToe_End
						{
							OFFSET 2.754700 0.931300 11.300900
							CHANNELS 3 Xrotation Yrotation Zrotation
							End Site
							{
								OFFSET 0 0 0
							}
						}
					}
				}
			}
		}
	}
	JOINT RightUpLeg_virtual
	{
		OFFSET 0.000000 0.000000 0.000000
		CHANNELS 3 Xrotation Yrotation Zrotation
		JOINT RightUpLeg
		{
			OFFSET -15.569500 -6.655098 0.678600
			CHANNELS 3 Xrotation Yrotation Zrotation
			JOINT RightLeg
			{
				OFFSET -4.081825 -39.591045 13.023800
				CHANNELS 3 Xrotation Yrotation Zrotation
				JOINT RightFoot
				{
					OFFSET 4.081824 -37.707954 -15.979600
					CHANNELS 3 Xrotation Yrotation Zrotation
					JOINT RightToeBase
					{
						OFFSET -5.346400 -15.068900 20.645000
						CHANNELS 3 Xrotation Yrotation Zrotation
						JOINT RightToe_End
						{
							OFFSET -2.754700 0.931300 11.300900
							CHANNELS 3 Xrotation Yrotation Zrotation
							End Site
							{
								OFFSET 0 0 0
							}
						}
					}
				}
			}
		}
	}
	JOINT Spine_virtual
	{
		OFFSET 0.000000 0.000000 0.000000
		CHANNELS 3 Xrotation Yrotation Zrotation
		JOINT Spine
		{
			OFFSET -0.279200 12.230698 -2.892100
			CHANNELS 3 Xrotation Yrotation Zrotation
			JOINT Spine1
			{
				OFFSET -0.232667 10.192268 -1.242267
				CHANNELS 3 Xrotation Yrotation Zrotation
				JOINT Spine1_split
				{
					OFFSET -0.232667 10.192268 -1.242267
					CHANNELS 3 Xrotation Yrotation Zrotation
					JOINT Spine2
					{
						OFFSET -0.232667 10.192268 -1.242267
						CHANNELS 3 Xrotation Yrotation Zrotation
						JOINT Neck_virtual
						{
							OFFSET 0.000000 0.000000 0.000000
							CHANNELS 3 Xrotation Yrotation Zrotation
							JOINT Neck
							{
								OFFSET -0.418800 17.814194 8.416900
								CHANNELS 3 Xrotation Yrotation Zrotation
								JOINT Head
								{
									OFFSET 0.000000 7.031097 3.806800
									CHANNELS 3 Xrotation Yrotation Zrotation
									JOINT HeadTop_End
									{
										OFFSET 0.000000 24.646606 12.978600
										CHANNELS 3 Xrotation Yrotation Zrotation
										End Site
										{
											OFFSET 0 0 0
										}
									}
								}
							}
						}
						JOINT LeftShoulder_virtual
						{
							OFFSET 0.000000 0.000000 0.000000
							CHANNELS 3 Xrotation Yrotation Zrotation
							JOINT LeftShoulder
							{
								OFFSET 8.476499 7.247704 -3.868750
								CHANNELS 3 Xrotation Yrotation Zrotation
								JOINT LeftShoulder_split
								{
									OFFSET 8.476499 7.247704 -3.868750
									CHANNELS 3 Xrotation Yrotation Zrotation
									JOINT LeftArm
									{
										OFFSET 9.308998 -2.777710 0.208600
										CHANNELS 3 Xrotation Yrotation Zrotation
										JOINT LeftForeArm
										{
											OFFSET 29.972298 0.000000 0.000000
											CHANNELS 3 Xrotation Yrotation Zrotation
											JOINT LeftHand
											{
												OFFSET 26.026505 0.000000 0.000000
												CHANNELS 3 Xrotation Yrotation Zrotation
												End Site
												{
													OFFSET 0 0 0
												}
											}
										}
									}
								}
							}
						}
						JOINT RightShoulder_virtual
						{
							OFFSET 0.000000 0.000000 0.000000
							CHANNELS 3 Xrotation Yrotation Zrotation
							JOINT RightShoulder
							{
								OFFSET -7.570500 7.247704 -3.868750
								CHANNELS 3 Xrotation Yrotation Zrotation
								JOINT RightShoulder_split
								{
									OFFSET -7.570500 7.247704 -3.868750
									CHANNELS 3 Xrotation Yrotation Zrotation
									JOINT RightArm
									{
										OFFSET -9.308998 -2.777710 0.208500
										CHANNELS 3 Xrotation Yrotation Zrotation
										JOINT RightForeArm
										{
											OFFSET -29.972300 0.000000 0.000000
											CHANNELS 3 Xrotation Yrotation Zrotation
											JOINT RightHand
											{
												OFFSET -26.026505 0.000000 0.000000
												CHANNELS 3 Xrotation Yrotation Zrotation
												End Site
												{
													OFFSET 0 0 0
												}
											}
										}
									}
								}
							}
						}
					}
				}
			}
		}
	}
}
MOTION
Frames: 9
Frame Time: 0.03333333
3.389092 94.526077 -8.290287 0.000000 0.000000 0.000000 -1.421092 25.979680 -0.977976 -33.294392 -13.594105 3.473563 41.258106 7.331587 -5.769670 34.321451 -5.617377 3.715783 -20.479964 2.326376 -3.738584 0.000000 0.000000 0.000000 -3.166791 25.274879 -0.422472 -11.389396 -7.908856 7.103612 26.773397 0.402542 1.530568 -0.713534 -14.614177 -1.114593 -14.380352 3.203595 -7.364559 0.000000 0.000000 0.000000 -3.976537 29.242734 0.062673 9.637449 -2.350217 -0.867807 1.594382 0.531422 1.366567 -0.005193 0.151185 0.040006 0.000000 0.000000 0.000000 0.603849 3.906570 2.035103 -16.775583 10.394240 18.935644 -4.847106 -30.044957 -36.686292 0.000000 0.000000 0.000000 1.265905 1.719000 1.740280 -0.146336 -0.536358 -10.988069 0.212305 -3.076065 -1.316565 4.289286 -7.865322 -60.624698 30.330162 -24.079576 0.473009 0.000000 0.000000 0.000000 1.826092 1.690100 1.425724 -3.777834 0.901723 16.473873 -22.675289 -6.272930 2.572968 20.439710 10.228385 46.131904 -1.832701 36.537004 26.678260 0.000000 0.000000 0.000000 
3.342263 95.208633 -5.462383 0.000000 0.000000 0.000000 -1.402959 24.754866 -0.979820 -33.312557 -11.691275 1.806165 34.395613 10.264146 -4.886005 28.692218 -4.361063 6.879406 -17.075488 2.663612 -4.804674 0.000000 0.000000 0.000000 -2.360361 22.932422 -0.491685 -10.461127 -7.820642 6.920519 26.403056 0.453421 1.814480 0.430070 -14.193164 -2.310587 -15.602749 3.131418 -6.819395 0.000000 0.000000 0.000000 -2.417341 27.859008 -0.706146 9.149815 -1.945159 -0.713455 1.606937 0.502858 1.320474 -0.070242 0.158184 0.057547 0.000000 0.000000 0.000000 0.606904 3.931325 1.902765 -16.688966 9.997234 18.774283 -5.175453 -31.077805 -36.788143 0.000000 0.000000 0.000000 1.312431 1.712892 1.843548 -0.141913 -0.334546 -10.981173 -0.668659 -3.473043 -1.772850 5.014211 -7.197695 -60.338963 30.394991 -24.193744 0.700887 0.000000 0.000000 0.000000 1.682611 1.713622 1.370773 -3.783464 1.078763 15.778775 -22.571955 -6.034926 1.819151 19.680773 10.577752 46.556752 -3.220514 39.201290 27.345895 0.000000 0.000000 0.000000 
3.335835 96.334518 -1.976303 0.000000 0.000000 0.000000 -1.481364 22.522247 -0.717069 -34.133870 -7.369612 0.434212 25.976102 12.355595 -2.542580 25.733586 -4.037321 6.048700 -9.099211 2.335493 -4.462022 0.000000 0.000000 0.000000 -1.865064 19.783300 -0.327287 -8.529348 -8.212429 6.125280 25.217521 1.495081 2.414003 1.677345 -12.057076 -2.982259 -18.644195 3.490896 -6.251081 0.000000 0.000000 0.000000 -1.123447 25.662909 -1.292446 8.846271 -1.259267 -0.454914 1.674786 0.512020 1.272457 -0.061691 -0.017173 0.080894 0.000000 0.000000 0.000000 0.651844 3.978231 1.913290 -16.636833 9.686030 18.425697 -6.700524 -32.591791 -37.361442 0.000000 0.000000 0.000000 1.281376 1.702002 1.817444 -0.090073 0.069637 -11.299652 -1.484940 -4.293815 -2.443269 5.744122 -5.553567 -60.172696 31.244601 -24.362458 1.413113 0.000000 0.000000 0.000000 1.469126 1.714159 1.193035 -3.765085 1.793031 14.579261 -22.193475 -6.296595 1.709862 19.591650 11.690043 46.548518 -5.666271 41.510536 28.600078 0.000000 0.000000 0.000000 
3.399393 97.388481 1.543056 0.000000 0.000000 0.000000 -1.557693 19.636527 -0.241389 -35.874192 -1.817794 -0.579768 18.254461 12.630685 0.630038 27.383328 -5.333077 1.768283 -3.625680 1.610006 -1.049831 0.000000 0.000000 0.000000 -1.378645 16.495614 -0.059519 -5.892696 -9.100325 4.993050 23.135191 3.316705 3.285591 1.644952 -8.709832 -3.675121 -21.401524 4.184279 -5.827488 0.000000 0.000000 0.000000 -0.371851 22.995922 -1.602155 8.743966 -0.492729 -0.248888 1.854184 0.516452 1.284819 0.005090 -0.413616 0.116924 0.000000 0.000000 0.000000 0.695384 3.984932 2.119152 -16.551591 9.557210 17.910356 -9.298394 -34.564753 -38.318215 0.000000 0.000000 0.000000 1.176998 1.667480 1.729812 0.001835 0.581710 -11.789535 -1.937229 -5.183046 -3.118759 6.317979 -3.003192 -60.251223 32.698069 -24.506463 2.460083 0.000000 0.000000 0.000000 1.266372 1.673999 0.997152 -3.729808 2.966488 13.135425 -21.858130 -6.936097 2.164570 19.901609 13.074500 46.143952 -8.479826 42.336675 29.913647 0.000000 0.000000 0.000000 
3.574046 97.871956 5.128380 0.000000 0.000000 0.000000 -1.595850 16.398832 0.277992 -38.142956 5.128130 -1.101740 12.250168 11.950166 3.878243 30.803542 -7.942637 -2.218138 -4.252267 0.676965 4.836263 0.000000 0.000000 0.000000 -0.708466 13.395619 0.159511 -2.817044 -10.794953 3.927401 20.783069 5.375901 4.206710 -0.553848 -5.229571 -4.884331 -21.665963 5.045780 -5.732590 0.000000 0.000000 0.000000 0.275573 20.255752 -1.801690 8.704464 0.237100 -0.197702 2.180751 0.549371 1.411979 0.072986 -0.820510 0.140039 0.000000 0.000000 0.000000 0.718079 3.935783 2.498970 -16.347556 9.604706 17.199084 -12.271802 -36.762633 -39.472975 0.000000 0.000000 0.000000 1.014608 1.667328 1.668662 0.128782 1.039813 -12.322133 -1.880592 -5.982900 -3.298396 6.698053 0.220784 -60.591107 34.490222 -24.491323 3.637586 0.000000 0.000000 0.000000 1.134716 1.625737 0.876517 -3.646691 4.418849 11.768769 -21.644793 -7.744284 2.778087 20.106791 14.226237 45.420208 -10.973227 41.326954 30.830361 0.000000 0.000000 0.000000 
3.996164 97.412491 8.775322 0.000000 0.000000 0.000000 -1.556330 13.144942 0.660225 -40.117311 13.157550 -1.157867 8.649209 11.476404 6.757376 33.130102 -10.544399 -3.397566 -7.811034 -0.542146 10.075104 0.000000 0.000000 0.000000 -0.082752 10.976346 0.217431 0.271862 -13.335365 3.100828 19.077866 7.229631 5.087906 -4.612889 -2.720632 -6.216111 -19.081698 5.917200 -6.110669 0.000000 0.000000 0.000000 0.768738 17.783364 -1.988060 8.542115 0.861963 -0.355313 2.622023 0.662216 1.622307 0.197641 -1.070285 0.123564 0.000000 0.000000 0.000000 0.713313 3.860495 2.931727 -16.044994 9.715228 16.286938 -14.766418 -39.086727 -40.392827 0.000000 0.000000 0.000000 0.810821 1.769928 1.670443 0.274228 1.236957 -12.737702 -1.466852 -6.259197 -3.148527 6.902638 3.673152 -61.141989 36.220688 -24.052649 4.657789 0.000000 0.000000 0.000000 1.141528 1.639069 0.876429 -3.538711 5.990882 10.769546 -21.534275 -8.759747 3.318289 19.739494 14.813731 44.764367 -12.763781 38.995100 31.188905 0.000000 0.000000 0.000000 
4.517335 96.114624 12.623184 0.000000 0.000000 0.000000 -1.437486 9.986794 0.787331 -41.916406 20.572916 -1.068678 8.566501 11.296624 9.042824 34.105440 -12.609687 -2.793368 -8.939512 -1.040568 12.064704 0.000000 0.000000 0.000000 0.405270 9.343239 0.149138 3.130137 -16.261309 2.660283 18.646485 8.633892 5.840915 -9.611423 -1.819070 -6.797480 -16.429899 6.705350 -6.901665 0.000000 0.000000 0.000000 0.955716 15.862377 -2.172197 8.030984 1.364557 -0.650303 3.081277 0.864025 1.834758 0.328062 -0.974001 0.083600 0.000000 0.000000 0.000000 0.704336 3.814326 3.262305 -15.524527 9.799488 15.296798 -15.619804 -41.359005 -40.598754 0.000000 0.000000 0.000000 0.616557 1.988361 1.714988 0.397654 1.059313 -12.962756 -1.048833 -5.848207 -2.839896 7.177106 6.916890 -61.845321 37.657883 -23.221962 5.371614 0.000000 0.000000 0.000000 1.301562 1.755455 0.930375 -3.461943 7.371607 10.247568 -21.430205 -9.487061 3.657845 18.825236 14.827420 44.417591 -13.751502 36.262649 31.067693 0.000000 0.000000 0.000000 
5.098688 94.267502 16.395695 0.000000 0.000000 0.000000 -1.216360 7.583605 0.647608 -43.629005 26.378925 -0.811791 11.904904 10.949069 10.347486 33.833707 -14.278737 -0.813312 -7.737252 -0.669190 11.758156 0.000000 0.000000 0.000000 0.516857 8.523111 -0.014140 5.680976 -18.586925 2.782552 19.532169 9.520370 6.087962 -14.688055 -2.702212 -6.648191 -15.378010 7.356462 -7.923466 0.000000 0.000000 0.000000 0.838454 14.805888 -2.253762 7.070009 1.712831 -0.973696 3.505710 1.147050 1.925057 0.320804 -0.710142 0.047197 0.000000 0.000000 0.000000 0.734281 3.883950 3.340650 -14.756224 9.720712 14.391113 -13.705509 -43.305821 -39.445538 0.000000 0.000000 0.000000 0.478307 2.303123 1.732150 0.453678 0.385329 -12.988123 -0.608787 -5.367993 -2.441605 7.660055 9.562337 -62.579853 38.644701 -22.241700 5.743088 0.000000 0.000000 0.000000 1.536398 1.983842 0.948762 -3.366692 8.259230 10.168469 -21.316508 -9.591344 3.568016 17.725997 14.385300 44.603130 -13.938753 33.769514 30.615647 0.000000 0.000000 0.000000 
5.736303 92.279709 20.276936 0.000000 0.000000 0.000000 -0.967157 5.806834 0.441495 -44.229016 30.206628 -0.727682 16.872024 10.220468 10.442499 32.453097 -15.834663 2.784104 -7.198076 -0.250477 11.198236 0.000000 0.000000 0.000000 0.168271 8.124028 -0.103218 7.754312 -19.288449 3.281264 21.536046 9.705508 5.930276 -18.524113 -5.081321 -6.734017 -14.834828 7.889248 -8.942661 0.000000 0.000000 0.000000 0.121127 14.686438 -2.020699 5.690799 1.805109 -1.344734 3.816857 1.414205 1.837882 0.257892 -0.566692 0.029334 0.000000 0.000000 0.000000 0.830095 4.092679 3.141839 -13.840853 9.412966 13.710362 -9.005160 -44.859545 -36.805775 0.000000 0.000000 0.000000 0.426997 2.637722 1.666696 0.411792 -0.661483 -12.917319 -0.356064 -5.050715 -2.084143 8.384974 11.614040 -63.340251 39.050353 -21.327469 5.790670 0.000000 0.000000 0.000000 1.774928 2.261688 0.918654 -3.197287 8.566824 10.396864 -21.471641 -9.198247 3.069444 16.845290 13.498721 45.440241 -13.194439 31.473655 29.754155 0.000000 0.000000 0.000000 
